<?xml version="1.0" encoding="UTF-8" standalone="no"?>
<!DOCTYPE svg PUBLIC "-//W3C//DTD SVG 20010904//EN" "http://www.w3.org/TR/2001/REC-SVG-20010904/DTD/svg10.dtd">
<svg version="1.0" xmlns="http://www.w3.org/2000/svg" width="900.000000pt" height="837.000000pt" viewBox="0 0 900.000000 837.000000" preserveAspectRatio="xMidYMid meet">
<metadata>
Created by potrace 1.10, written by Peter Selinger 2001-2011
</metadata>
<g transform="translate(0.000000,837.000000) scale(0.100000,-0.100000)" fill="#000000" stroke="none">
<path d="M6560 8343 c0 -14 -7 -51 -16 -82 -19 -69 -37 -136 -59 -221 -10 -36 -24 -87 -31 -115 -49 -174 -73 -256 -89 -310 -7 -22 -21 -67 -30 -100 -10 -33 -23 -76 -30 -95 -7 -19 -20 -62 -30 -95 -9 -33 -23 -75 -31 -93 -8 -18 -14 -39 -14 -47 0 -8 -6 -29 -14 -47 -17 -42 -35 -94 -46 -133 -5 -16 -18 -55 -30 -85 -40 -105 -51 -135 -60 -165 -16 -55 -41 -120 -51 -129 -5 -6 -9 -18 -9 -27 0 -10 -6 -30 -14 -46 -8 -15 -22 -48 -31 -73 -9 -25 -23 -58 -30 -75 -7 -16 -30 -70 -50 -120 -33 -80 -56 -132 -99 -230 -28 -61 -177 -362 -212 -425 -144 -264 -327 -527 -471 -678 l-70 -73 -99 -15 c-106 -17 -212 -35 -309 -54 -33 -7 -80 -16 -105 -20 -25 -4 -67 -13 -95 -20 -27 -6 -77 -19 -110 -27 -85 -21 -166 -44 -195 -56 -14 -5 -38 -13 -55 -17 -35 -10 -88 -28 -130 -46 -16 -7 -55 -22 -85 -34 -67 -27 -224 -104 -265 -131 -16 -10 -37 -22 -45 -26 -8 -4 -35 -20 -60 -37 -198 -131 -388 -330 -512 -536 -51 -85 -138 -262 -138 -282 0 -7 -7 -22 -15 -32 -8 -11 -15 -28 -15 -38 0 -9 -6 -32 -14 -50 -44 -103 -109 -384 -104 -448 3 -40 6 -45 28 -47 14 -2 66 -9 115 -18 370 -60 753 -43 1095 49 176 47 369 131 557 242 50 30 202 136 227 158 12 12 49 43 82 71 181 151 415 428 569 673 44 70 57 82 110 109 90 45 216 112 250 134 17 10 39 23 51 28 11 5 51 28 88 50 36 23 68 41 71 41 3 0 34 20 71 45 36 25 67 45 69 45 2 0 59 37 125 83 67 45 129 87 138 92 9 6 53 37 98 70 45 33 92 67 104 75 141 93 221 165 765 690 154 149 325 313 355 340 9 8 69 65 134 125 126 118 127 118 261 240 49 44 96 87 105 95 16 15 194 176 216 195 6 6 40 35 75 65 35 30 91 80 124 110 148 134 345 303 366 314 38 19 32 32 -28 72 -51 33 -128 88 -158 112 -79 63 -109 81 -122 73 -16 -8 -44 -42 -155 -186 -34 -44 -65 -82 -68 -85 -4 -3 -26 -30 -49 -60 -247 -316 -625 -647 -665 -582 -4 7 56 133 105 219 102 178 283 421 487 652 32 35 66 76 77 91 11 16 32 36 47 46 15 11 28 24 28 31 0 7 -24 24 -52 38 -65 32 -83 42 -129 78 -20 15 -39 27 -43 27 -3 0 -28 -30 -55 -67 -28 -38 -54 -73 -59 -78 -5 -6 -17 -24 -28 -40 -22 -35 -255 -348 -264 -355 -3 -3 -33 -39 -65 -80 -94 -119 -367 -390 -393 -390 -26 0 -26 0 -8 42 8 18 21 51 29 73 66 176 139 324 223 453 89 135 329 449 372 486 50 42 53 47 41 62 -6 8 -17 14 -24 14 -6 0 -32 11 -56 24 -24 14 -61 34 -81 45 -20 11 -46 26 -58 33 -20 12 -24 9 -56 -27 -18 -22 -34 -44 -34 -49 0 -4 -12 -25 -27 -45 -16 -20 -33 -45 -40 -56 -6 -11 -51 -84 -100 -163 -48 -79 -93 -151 -98 -160 -84 -139 -219 -312 -326 -421 -143 -143 -174 -160 -166 -88 2 23 10 58 17 77 52 142 55 148 120 280 57 116 68 137 144 258 28 46 56 91 61 100 13 22 48 74 57 87 4 6 42 57 85 115 42 58 94 121 116 141 39 37 42 59 8 59 -18 0 -78 25 -187 76 -28 13 -56 24 -62 24 -6 0 -23 -24 -37 -52 -15 -29 -48 -93 -75 -143 -27 -49 -53 -97 -57 -105 -17 -35 -155 -261 -198 -325 -70 -102 -89 -129 -95 -135 -3 -3 -34 -43 -70 -90 -35 -47 -66 -87 -69 -90 -3 -3 -28 -31 -54 -62 -28 -34 -57 -58 -68 -58 -23 0 -23 -6 2 60 11 30 24 66 29 80 7 24 18 51 46 117 8 17 14 37 14 45 0 8 4 18 8 23 4 6 18 37 31 70 12 33 27 69 31 80 5 11 21 49 35 85 78 191 231 461 314 553 19 21 30 41 25 46 -5 4 -61 29 -124 55 -63 26 -128 53 -145 61 -28 12 -77 31 -155 61 -19 7 -45 16 -57 19 -13 4 -23 13 -23 21 0 8 -10 14 -25 14 -20 0 -25 -5 -25 -27z"/>
<path d="M1603 7357 c-29 -32 -113 -145 -113 -151 0 -2 -19 -33 -42 -68 -58 -87 -66 -100 -78 -123 -6 -11 -26 -47 -45 -80 -35 -62 -186 -365 -211 -423 -7 -18 -20 -47 -27 -65 -15 -34 -40 -96 -63 -159 -8 -21 -21 -55 -29 -75 -8 -21 -22 -63 -31 -93 -9 -30 -23 -71 -29 -90 -12 -32 -28 -88 -61 -215 -7 -27 -19 -84 -28 -125 -8 -41 -22 -109 -31 -150 -8 -41 -15 -89 -15 -106 0 -17 -7 -75 -15 -130 -21 -136 -20 -501 0 -654 30 -217 81 -443 121 -538 8 -18 14 -39 14 -47 0 -8 7 -31 16 -52 9 -21 22 -53 30 -71 39 -94 100 -219 149 -307 19 -33 38 -67 42 -75 24 -45 106 -160 115 -160 6 0 8 36 3 103 -4 58 -2 147 5 207 6 58 15 141 20 185 4 44 13 93 19 108 6 16 11 40 11 54 0 25 15 86 46 184 8 26 14 53 14 62 0 8 7 28 15 43 8 16 15 37 15 46 0 10 6 32 14 50 8 18 21 52 30 76 55 145 69 176 162 367 81 164 156 302 209 380 18 28 50 77 71 109 22 33 44 66 49 75 31 48 215 292 249 332 17 20 53 62 81 95 105 125 270 293 409 417 136 122 168 147 204 163 17 8 32 20 32 26 0 28 -201 258 -225 258 -6 0 -30 -29 -53 -65 -24 -35 -48 -70 -55 -77 -7 -7 -32 -37 -56 -67 -46 -55 -166 -164 -275 -249 -32 -25 -66 -29 -66 -8 0 8 4 16 8 18 5 2 26 39 48 83 88 181 196 339 285 419 28 25 48 50 44 56 -12 19 -164 130 -178 130 -14 0 -47 -31 -47 -43 0 -4 -12 -26 -27 -50 -38 -59 -51 -80 -59 -97 -13 -26 -95 -133 -138 -179 -56 -59 -172 -151 -190 -151 -17 0 -23 54 -7 64 5 3 12 18 16 33 12 47 90 197 135 259 24 32 83 98 132 147 48 48 88 89 88 91 0 3 -46 28 -102 56 l-103 51 -33 -38 c-19 -21 -55 -69 -80 -108 -74 -111 -167 -224 -255 -309 -106 -102 -171 -132 -145 -68 30 75 41 100 55 132 9 19 24 51 32 70 51 113 196 318 248 350 44 28 26 48 -87 96 -58 25 -123 53 -145 63 -66 30 -72 31 -92 8z"/>
<path d="M3860 7023 c-76 -27 -190 -88 -210 -112 -3 -3 -34 -30 -70 -60 -36 -30 -69 -59 -75 -66 -18 -20 -129 -102 -165 -121 -67 -37 -216 -138 -335 -228 -436 -327 -821 -753 -1100 -1217 -70 -116 -69 -115 -115 -204 -23 -44 -45 -87 -50 -95 -8 -15 -60 -127 -87 -190 -47 -107 -91 -222 -116 -305 -93 -310 -129 -497 -148 -772 -17 -253 0 -476 58 -753 8 -41 21 -93 28 -115 6 -22 20 -67 30 -100 21 -74 42 -131 61 -168 8 -16 14 -33 14 -38 0 -24 154 -321 211 -407 16 -24 29 -45 29 -48 0 -3 34 -50 75 -104 41 -54 75 -106 75 -114 0 -19 -34 -86 -73 -146 -63 -96 -221 -221 -297 -237 -49 -9 -177 116 -442 432 -69 83 -146 170 -171 193 -45 44 -45 44 -108 40 -85 -6 -139 -20 -284 -76 -45 -17 -170 -77 -199 -95 -168 -105 -308 -235 -356 -329 -19 -39 -9 -42 26 -10 101 92 233 189 324 238 19 10 43 25 53 33 13 11 20 12 29 3 8 -8 -5 -30 -53 -84 -116 -131 -253 -323 -243 -340 3 -5 54 37 113 94 135 133 299 254 318 235 8 -9 -10 -45 -63 -122 -22 -33 -43 -67 -47 -75 -4 -8 -16 -28 -26 -45 -11 -16 -29 -50 -41 -75 -11 -25 -28 -58 -35 -73 -17 -33 -20 -87 -5 -87 6 0 13 8 16 18 3 9 10 24 15 32 5 8 12 22 16 30 22 50 139 206 203 270 76 76 205 170 233 170 9 0 19 5 22 10 3 6 30 10 59 10 63 0 77 -13 85 -73 5 -36 10 -43 33 -47 49 -9 117 -79 249 -254 71 -94 139 -182 151 -196 40 -44 102 -87 134 -94 27 -6 35 -2 60 27 46 53 199 184 235 201 10 5 19 13 19 18 0 4 4 8 9 8 6 0 29 12 53 28 69 43 79 49 158 88 178 88 259 113 520 166 94 19 657 16 720 -4 50 -16 49 -12 31 -113 -60 -354 -101 -443 -225 -486 -49 -17 -99 -21 -320 -29 -143 -5 -308 -12 -366 -15 -165 -9 -365 -46 -448 -81 -18 -8 -38 -14 -45 -14 -7 0 -45 -17 -85 -37 -86 -45 -178 -128 -217 -198 -23 -42 -53 -135 -55 -169 0 -16 32 18 65 69 60 93 183 190 295 233 67 26 158 36 216 23 30 -7 54 -16 54 -21 0 -4 -29 -22 -65 -40 -216 -107 -364 -305 -365 -487 0 -60 14 -85 26 -45 8 28 75 162 88 175 6 7 22 26 34 42 104 136 257 245 345 245 40 0 35 -25 -21 -111 -99 -150 -122 -201 -153 -343 -20 -95 -26 -241 -9 -251 6 -3 12 0 14 7 2 7 16 58 32 113 24 87 58 166 129 303 25 48 80 128 128 186 59 71 57 70 111 100 83 46 135 60 218 58 68 -2 79 0 88 18 6 11 20 24 31 31 51 27 202 52 398 66 l83 6 35 76 c202 450 346 632 849 1071 34 30 610 524 639 548 64 54 268 232 380 331 124 110 653 633 705 696 45 54 135 160 141 165 29 25 319 429 319 445 0 2 26 47 58 102 32 54 70 123 84 153 45 97 68 149 68 154 0 3 18 43 40 88 49 101 43 126 -16 70 -43 -42 -333 -256 -402 -297 -9 -6 -56 -36 -103 -67 -47 -31 -155 -97 -240 -147 -85 -50 -161 -96 -169 -101 -8 -6 -24 -15 -35 -20 -11 -6 -33 -19 -50 -30 -16 -11 -39 -24 -50 -29 -11 -5 -30 -20 -43 -33 -27 -27 -162 -209 -162 -217 0 -4 -10 -17 -23 -31 -12 -14 -38 -45 -57 -70 -115 -151 -342 -379 -515 -519 -41 -33 -243 -171 -320 -218 -38 -24 -283 -143 -293 -143 -6 0 -23 -6 -39 -14 -30 -15 -80 -33 -128 -46 -16 -5 -43 -13 -60 -19 -28 -9 -84 -24 -200 -51 -27 -6 -84 -15 -125 -20 -41 -5 -122 -14 -180 -20 -111 -13 -310 -9 -460 10 -173 21 -282 42 -430 80 -25 6 -62 15 -84 19 -21 5 -47 18 -58 29 -20 19 -20 25 -9 143 7 68 17 149 23 179 6 30 14 75 18 100 10 62 29 132 57 215 14 39 27 79 30 90 24 93 219 448 285 520 7 7 24 28 37 47 31 42 245 255 289 288 19 14 39 30 45 36 35 31 159 111 232 149 28 14 57 30 65 34 8 5 33 17 55 26 22 10 52 24 67 32 14 7 35 13 46 13 12 0 24 5 27 10 3 6 19 10 35 10 47 0 45 19 -7 73 -150 156 -199 301 -162 479 12 57 15 65 53 148 31 65 37 76 95 155 41 56 205 225 261 270 86 68 109 85 118 85 5 0 15 6 21 13 6 8 29 20 50 27 35 11 43 11 65 -4 14 -9 30 -16 36 -16 21 0 167 -119 225 -182 80 -88 295 -374 295 -393 0 -2 14 -24 30 -48 17 -25 30 -50 30 -56 0 -6 6 -11 13 -11 31 0 53 471 27 597 -5 26 -14 73 -20 103 -22 112 -30 144 -40 154 -6 6 -10 18 -10 29 0 10 -22 64 -49 120 -27 56 -56 124 -65 150 -50 149 -138 283 -248 380 -36 31 -68 57 -71 57 -3 0 -23 12 -44 26 -47 32 -139 75 -218 103 -74 26 -226 28 -295 4z m408 -426 c2 -10 -4 -27 -13 -37 -14 -16 -20 -17 -36 -7 -19 12 -26 47 -12 61 14 14 58 1 61 -17z"/>
<path d="M5105 2618 c-84 -74 -194 -166 -251 -208 -18 -14 -34 -30 -34 -36 0 -6 24 -22 53 -34 123 -53 237 -148 336 -280 62 -84 66 -89 122 -200 41 -79 44 -105 15 -136 -6 -7 -31 -42 -56 -78 -25 -37 -72 -103 -105 -149 -33 -46 -64 -90 -70 -99 -5 -9 -36 -54 -68 -101 -48 -70 -66 -88 -110 -109 -121 -58 -246 -96 -434 -132 -46 -9 -120 -23 -165 -32 -238 -45 -365 -98 -474 -198 -64 -58 -154 -166 -154 -184 0 -5 -7 -15 -15 -22 -17 -14 -20 -50 -4 -50 5 0 29 18 52 39 46 44 124 104 147 114 8 4 30 16 49 28 83 50 192 99 282 128 66 21 105 10 71 -20 -9 -8 -54 -47 -100 -87 -174 -151 -242 -232 -326 -395 -34 -65 -45 -107 -28 -107 4 0 73 69 154 154 82 85 177 176 212 203 84 62 265 153 306 153 10 0 22 5 25 10 10 15 45 12 45 -5 0 -8 -13 -29 -28 -47 -180 -210 -302 -437 -302 -564 0 -57 13 -54 48 11 15 28 51 84 80 125 29 41 65 93 79 115 145 216 333 427 416 470 18 8 39 19 47 24 31 18 87 40 141 56 56 16 57 17 92 88 30 60 120 207 149 242 60 73 187 235 260 330 50 66 97 121 104 123 18 4 17 31 -4 64 -48 75 -128 210 -166 280 -16 29 -44 80 -63 113 -18 33 -35 67 -39 75 -3 8 -10 22 -15 30 -5 8 -12 22 -15 30 -4 8 -24 51 -44 95 -43 89 -74 165 -87 210 -15 48 -40 41 -128 -37z"/>
</g>
</svg>